<svg xmlns="http://www.w3.org/2000/svg" xmlns:xlink="http://www.w3.org/1999/xlink" xml:space="preserve" version="1.1" style="shape-rendering:geometricPrecision;text-rendering:geometricPrecision;image-rendering:optimizeQuality;" viewBox="0 0 527 550" x="0px" y="0px" fill-rule="evenodd" clip-rule="evenodd"><defs><style type="text/css">
   
    .fil0 {fill:black}
   
  </style></defs><g><path class="fil0" d="M154 95l208 209 54 -54 -208 -209 -54 54zm-15 15l82 82 10 -10 -82 -82 -10 10zm-12 -71l-1 -1 -9 -9c-6,-7 -6,-18 0,-24l0 0c7,-7 18,-7 24,0l9 9 1 1 4 -4c6,-6 16,-6 22,0l21 20 -54 54 -21 -20c-6,-6 -6,-16 0,-22l4 -4zm245 275l57 57 54 -54 -57 -57 -54 54zm68 67l32 12 55 22 -21 -55 -13 -33 -53 54z"/><path class="fil0" d="M0 407c0,0 303,29 275,7 -29,-22 -139,-43 -128,-48 11,-4 191,-4 275,25 83,29 105,49 105,49 -91,-50 -176,-62 -292,-64 338,92 -159,41 -235,31z"/></g><text x="0" y="455" fill="#000000" font-size="5px" font-weight="bold" font-family="'Helvetica Neue', Helvetica, Arial-Unicode, Arial, Sans-serif">Created by Bismillah</text><text x="0" y="460" fill="#000000" font-size="5px" font-weight="bold" font-family="'Helvetica Neue', Helvetica, Arial-Unicode, Arial, Sans-serif">from the Noun Project</text></svg>