<svg xmlns="http://www.w3.org/2000/svg" xmlns:xlink="http://www.w3.org/1999/xlink" version="1.1" x="0px" y="0px" viewBox="0 0 512 640" style="enable-background:new 0 0 512 512;" xml:space="preserve"><g><g><path d="M434.407,264.312H76.593c-6.022,0-10.922,4.899-10.922,10.922v185.843c0,6.022,4.899,10.922,10.922,10.922h357.814    c6.022,0,10.922-4.899,10.922-10.922V275.233C445.329,269.211,440.43,264.312,434.407,264.312z M385.979,393.545H125.021    c-2.209,0-4-1.791-4-4s1.791-4,4-4h260.959c2.209,0,4,1.791,4,4S388.188,393.545,385.979,393.545z M385.979,350.766H125.021    c-2.209,0-4-1.791-4-4s1.791-4,4-4h260.959c2.209,0,4,1.791,4,4S388.188,350.766,385.979,350.766z"/><polygon points="156.158,172.578 156.158,172.579 151.793,181.169 146.877,190.845 207.046,190.845 176.96,131.636   "/><polygon points="137.709,145.122 118.899,190.845 137.904,190.845 144.782,177.308 148.194,170.592   "/><path d="M118.852,108.91c3.305,0,5.993-2.698,5.993-6.014c0-3.315-2.688-6.013-5.993-6.013c-3.314,0-6.012,2.697-6.012,6.013    C112.84,106.212,115.537,108.91,118.852,108.91z"/><polygon points="206.25,171.591 216.021,190.845 232.855,190.845 214.619,155.205   "/><path d="M435.407,40.002H77.593c-6.022,0-10.922,4.899-10.922,10.922v185.882c0,6.022,4.899,10.922,10.922,10.922h357.814    c6.022,0,10.922-4.899,10.922-10.922V50.924C446.329,44.901,441.43,40.002,435.407,40.002z M118.852,88.884    c7.716,0,13.993,6.286,13.993,14.013c0,7.727-6.277,14.014-13.993,14.014c-7.727,0-14.012-6.287-14.012-14.014    C104.84,95.17,111.125,88.884,118.852,88.884z M239.416,198.845c-0.007,0-0.014,0-0.021,0h-25.81c-0.008,0-0.014,0-0.021,0    h-73.207h-27.43c-1.334,0-2.581-0.665-3.323-1.774c-0.743-1.108-0.884-2.514-0.376-3.748l24.778-60.233    c0.617-1.499,2.078-2.478,3.699-2.478s3.082,0.978,3.699,2.477l11.567,28.097l20.421-40.192c0.682-1.342,2.06-2.188,3.565-2.188    s2.884,0.846,3.566,2.188l21.237,41.794l9.291-18.19c0.683-1.338,2.059-2.18,3.561-2.181h0.001c1.502,0,2.877,0.841,3.562,2.178    l24.609,48.096c0.397,0.622,0.629,1.361,0.629,2.154C243.416,197.054,241.625,198.845,239.416,198.845z M393.738,169.234H275.2    c-2.209,0-4-1.791-4-4s1.791-4,4-4h118.538c2.209,0,4,1.791,4,4S395.947,169.234,393.738,169.234z M393.738,126.494H275.2    c-2.209,0-4-1.791-4-4s1.791-4,4-4h118.538c2.209,0,4,1.791,4,4S395.947,126.494,393.738,126.494z"/></g></g><text x="0" y="527" fill="#000000" font-size="5px" font-weight="bold" font-family="'Helvetica Neue', Helvetica, Arial-Unicode, Arial, Sans-serif">Created by iconmarketpk</text><text x="0" y="532" fill="#000000" font-size="5px" font-weight="bold" font-family="'Helvetica Neue', Helvetica, Arial-Unicode, Arial, Sans-serif">from the Noun Project</text></svg>