<svg xmlns="http://www.w3.org/2000/svg" xmlns:xlink="http://www.w3.org/1999/xlink" version="1.1" x="0px" y="0px" viewBox="0 0 69 86.25" style="enable-background:new 0 0 69 69;" xml:space="preserve"><g><path d="M8.02446,50.26703c52.48254-0.01224,34.38077-0.00802,38.29712-0.00893V29.15225   c-0.00708-0.11011,0.00453-0.22238,0.04695-0.33185l3.02327-7.78272c0.61343-1.15644,2.17304-1.06764,2.70481-0.09084   l3.05797,7.87356c0.02214,0.05741,0.02169,0.11585,0.02992,0.17428c0.00549,0.03726,0.02214,0.07068,0.02214,0.10947v0.01927   c-0.00006,0.00242,0.00013,0.00472,0,0.00714v21.12728h5.61887c3.01408,0,5.46679-2.46189,5.46679-5.4872   c0-3.03041-2.45679-5.4872-5.47699-5.4872h-2.37207c-0.10966,0-0.21371-0.02322-0.3085-0.06392   c-0.28318-0.11814-0.48253-0.39717-0.48253-0.72303V8.76496H6.10047c-1.95971,0-3.55402,1.59839-3.55402,3.56321v40.54977   c0.00651-0.00829,0.01691-0.01735,0.02354-0.02577C3.88203,51.23418,5.88609,50.26703,8.02446,50.26703z M27.4093,41.29929   c-0.18837,0.12917-0.44155,0.08012-0.5675-0.10309c-0.42256-0.60935-0.77062-1.26871-1.03395-1.96175   c-0.08063-0.21026,0.02552-0.44604,0.23578-0.52565c0.2123-0.08064,0.44706,0.02654,0.52565,0.23578   c0.24088,0.63078,0.55729,1.23197,0.94209,1.78824C27.63998,40.91756,27.59405,41.17171,27.4093,41.29929z M27.44503,37.93409   c0-0.22557,0.18168-0.40725,0.40725-0.40725h2.16793c0.22557,0,0.40725,0.18168,0.40725,0.40725s-0.18168,0.40725-0.40725,0.40725   h-2.16793C27.62671,38.34135,27.44503,38.15966,27.44503,37.93409z M43.04824,39.18341   c-0.07949,0.21197-0.31494,0.31634-0.52463,0.23884c-0.21128-0.07859-0.31744-0.31335-0.23884-0.52463   c0.2368-0.63282,0.39603-1.29423,0.4736-1.96686c0.02654-0.22353,0.23578-0.38684,0.45216-0.35826   c0.22353,0.02654,0.38378,0.22863,0.35826,0.45216C43.48305,37.7616,43.30851,38.48833,43.04824,39.18341z M42.49298,32.42035   c0.21026-0.07859,0.44604,0.0245,0.52667,0.23476c0.26538,0.69304,0.44706,1.41671,0.53892,2.15262   c0.02858,0.22353-0.12963,0.42767-0.35316,0.45523c-0.01735,0.00204-0.0347,0.00306-0.05206,0.00306   c-0.2021,0-0.37766-0.15004-0.40317-0.35622c-0.08472-0.67059-0.25007-1.33097-0.49197-1.96278   C42.17759,32.73677,42.28272,32.50099,42.49298,32.42035z M42.02551,41.15334c-0.41746,0.60935-0.91045,1.1697-1.46366,1.66678   c-0.16728,0.14989-0.42566,0.13647-0.57567-0.03062c-0.15106-0.16739-0.13677-0.42563,0.03062-0.57567   c0.50626-0.4542,0.95536-0.96557,1.33506-1.52184c0.12759-0.18679,0.38174-0.23272,0.5675-0.10615   C42.10512,40.71342,42.15207,40.96757,42.02551,41.15334z M39.92596,29.07761c0.14902-0.16943,0.40623-0.18678,0.57566-0.03675   c0.5573,0.49095,1.05437,1.04824,1.47897,1.65657c0.12861,0.18372,0.08268,0.43787-0.10207,0.5675   c-0.07043,0.04899-0.15208,0.07247-0.23272,0.07247c-0.1286,0-0.25517-0.06022-0.33478-0.17454   c-0.38684-0.55423-0.84003-1.06253-1.34833-1.50959C39.79429,29.50426,39.77796,29.24705,39.92596,29.07761z M38.74401,44.09188   c-0.65528,0.34805-1.35241,0.61752-2.06995,0.79818c-0.22709,0.05505-0.44118-0.0831-0.49503-0.29498   c-0.05512-0.21843,0.07655-0.43991,0.29498-0.49503c0.65426-0.16535,1.28913-0.41032,1.88623-0.72877   c0.19699-0.10309,0.44604-0.03062,0.55219,0.16842C39.01755,43.73873,38.94202,43.98573,38.74401,44.09188z M36.10247,27.3057   c0.05206-0.21945,0.27661-0.3552,0.49197-0.30008c0.72163,0.17454,1.4208,0.43787,2.07914,0.78082   c0.19904,0.10411,0.27661,0.3501,0.1725,0.55015c-0.07247,0.13881-0.21434,0.21843-0.36132,0.21843   c-0.0643,0-0.1286-0.01429-0.18883-0.04593c-0.59914-0.31233-1.23605-0.55219-1.89337-0.71142   C36.18311,27.7446,36.0494,27.52413,36.10247,27.3057z M34.46938,45.16769h-0.05103c-0.74408,0-1.48612-0.0888-2.20264-0.26435   c-0.21843-0.0541-0.35213-0.27457-0.29906-0.49299c0.0541-0.21843,0.26946-0.35622,0.49299-0.29906   c0.65324,0.16025,1.32995,0.2419,2.00871,0.2419c0.22557,0,0.43277,0.18168,0.43277,0.40725S34.69495,45.16769,34.46938,45.16769z    M33.23333,32.14579c0.22557,0,0.40725,0.18168,0.40725,0.40725v2.16793c0,0.22557-0.18168,0.40725-0.40725,0.40725   s-0.40725-0.18168-0.40725-0.40725v-2.16793C32.82608,32.32747,33.00776,32.14579,33.23333,32.14579z M32.82608,30.38613v-2.16793   c0-0.22557,0.18168-0.40725,0.40725-0.40725s0.40725,0.18168,0.40725,0.40725v2.16793c0,0.22557-0.18168,0.40725-0.40725,0.40725   S32.82608,30.6117,32.82608,30.38613z M34.39079,26.74637c0.22455,0,0.40725,0.18168,0.40725,0.40623   c0.00102,0.22455-0.18066,0.40827-0.40623,0.40827c-0.67876,0.00204-1.35343,0.08574-2.00667,0.24803   c-0.03266,0.00817-0.06532,0.01123-0.09798,0.01123c-0.1827,0-0.34907-0.1235-0.39602-0.30927   c-0.0541-0.21843,0.07961-0.43889,0.29804-0.49401c0.7155-0.1776,1.45652-0.26844,2.2006-0.27048H34.39079z M33.23333,23.47507   c0.22557,0,0.40725,0.18168,0.40725,0.40725v2.16793c0,0.22557-0.18168,0.40725-0.40725,0.40725s-0.40725-0.18168-0.40725-0.40725   v-2.16793C32.82608,23.65676,33.00776,23.47507,33.23333,23.47507z M32.82608,21.71541v-2.16793   c0-0.22557,0.18168-0.40725,0.40725-0.40725s0.40725,0.18168,0.40725,0.40725v2.16793c0,0.22557-0.18168,0.40725-0.40725,0.40725   S32.82608,21.94098,32.82608,21.71541z M32.18815,15.92711h1.04518c0.22557,0,0.40725,0.18168,0.40725,0.40725v1.04518   c0,0.22557-0.18168,0.40725-0.40725,0.40725s-0.40725-0.18168-0.40725-0.40725v-0.63793h-0.63793   c-0.22557,0-0.40725-0.18168-0.40725-0.40725S31.96258,15.92711,32.18815,15.92711z M32.18815,37.52684h0.63793v-0.63793   c0-0.22557,0.18168-0.40725,0.40725-0.40725s0.40725,0.18168,0.40725,0.40725v1.04518c0,0.22557-0.18168,0.40725-0.40725,0.40725   h-1.04518c-0.22557,0-0.40725-0.18168-0.40725-0.40725S31.96258,37.52684,32.18815,37.52684z M30.6908,43.94593   c-0.10768,0.20627-0.36261,0.27217-0.55015,0.17046c-0.65732-0.34499-1.27177-0.7696-1.82601-1.26055   c-0.16841-0.14902-0.18372-0.40725-0.0347-0.57566c0.15004-0.16842,0.40725-0.18372,0.57567-0.0347   c0.50524,0.44808,1.06559,0.83492,1.66474,1.15031C30.71938,43.49989,30.79593,43.74689,30.6908,43.94593z M30.66835,27.97935   c0.10513,0.19903,0.0296,0.44604-0.16943,0.55117c-0.59506,0.31437-1.1544,0.70223-1.66168,1.15337   c-0.07757,0.06941-0.17352,0.10309-0.27048,0.10309c-0.11227,0-0.22353-0.04593-0.30416-0.13677   c-0.15004-0.16739-0.13473-0.42562,0.03368-0.57464c0.55525-0.49503,1.16868-0.92066,1.8209-1.26565   C30.31621,27.70377,30.56322,27.78032,30.66835,27.97935z M27.85228,15.92711h2.16793c0.22557,0,0.40725,0.18168,0.40725,0.40725   s-0.18168,0.40725-0.40725,0.40725h-2.16793c-0.22557,0-0.40725-0.18168-0.40725-0.40725S27.62671,15.92711,27.85228,15.92711z    M27.39399,30.63518c0.18474,0.12758,0.2317,0.38173,0.10411,0.5675c-0.3848,0.55832-0.70121,1.16154-0.93801,1.7913   c-0.06226,0.16331-0.21741,0.26334-0.38174,0.26334c-0.04797,0-0.09696-0.00817-0.14392-0.02552   c-0.21026-0.07961-0.31641-0.31539-0.23782-0.52565c0.2613-0.69202,0.60731-1.35343,1.02987-1.96686   C26.9551,30.55454,27.20619,30.50657,27.39399,30.63518z M26.08343,36.9818c0.02756,0.22353-0.13167,0.42664-0.3552,0.45318   c-0.01633,0.00204-0.03266,0.00306-0.04899,0.00306c-0.20414,0-0.37969-0.15106-0.40419-0.35826   c-0.04593-0.37459-0.06839-0.75327-0.06737-1.12378c0-0.36949,0.02143-0.73489,0.06328-1.09417   c0.02756-0.22353,0.23374-0.37051,0.45318-0.35724c0.22353,0.02654,0.38378,0.22965,0.35724,0.45319   c-0.03981,0.32866-0.0592,0.6614-0.0592,0.99925C26.02117,36.30406,26.04261,36.64599,26.08343,36.9818z M23.51743,15.92711   h2.16793c0.22557,0,0.40725,0.18168,0.40725,0.40725s-0.18168,0.40725-0.40725,0.40725h-2.16793   c-0.22557,0-0.40725-0.18168-0.40725-0.40725S23.29186,15.92711,23.51743,15.92711z M23.51743,37.52684h2.16793   c0.22557,0,0.40725,0.18168,0.40725,0.40725s-0.18168,0.40725-0.40725,0.40725h-2.16793   c-0.22557,0-0.40725-0.18168-0.40725-0.40725S23.29186,37.52684,23.51743,37.52684z M19.18156,15.92711h2.16793   c0.22557,0,0.40725,0.18168,0.40725,0.40725s-0.18168,0.40725-0.40725,0.40725h-2.16793   c-0.22557,0-0.40725-0.18168-0.40725-0.40725S18.95599,15.92711,19.18156,15.92711z M19.18156,37.52684h2.16793   c0.22557,0,0.40725,0.18168,0.40725,0.40725s-0.18168,0.40725-0.40725,0.40725h-2.16793   c-0.22557,0-0.40725-0.18168-0.40725-0.40725S18.95599,37.52684,19.18156,37.52684z M14.84671,15.92711h2.16793   c0.22557,0,0.40725,0.18168,0.40725,0.40725s-0.18168,0.40725-0.40725,0.40725h-2.16793   c-0.22557,0-0.40725-0.18168-0.40725-0.40725S14.62114,15.92711,14.84671,15.92711z M14.84671,37.52684h2.16793   c0.22557,0,0.40725,0.18168,0.40725,0.40725s-0.18168,0.40725-0.40725,0.40725h-2.16793   c-0.22557,0-0.40725-0.18168-0.40725-0.40725S14.62114,37.52684,14.84671,37.52684z M11.22635,16.33436   c0-0.22557,0.18168-0.40725,0.40725-0.40725h1.04518c0.22557,0,0.40725,0.18168,0.40725,0.40725s-0.18168,0.40725-0.40725,0.40725   h-0.63793v0.63793c0,0.22557-0.18168,0.40725-0.40725,0.40725s-0.40725-0.18168-0.40725-0.40725V16.33436z M11.22635,19.54748   c0-0.22557,0.18168-0.40725,0.40725-0.40725s0.40725,0.18168,0.40725,0.40725v2.16793c0,0.22557-0.18168,0.40725-0.40725,0.40725   s-0.40725-0.18168-0.40725-0.40725V19.54748z M11.22635,23.88233c0-0.22557,0.18168-0.40725,0.40725-0.40725   s0.40725,0.18168,0.40725,0.40725v2.16793c0,0.22557-0.18168,0.40725-0.40725,0.40725s-0.40725-0.18168-0.40725-0.40725V23.88233z    M11.22635,28.21819c0-0.22557,0.18168-0.40725,0.40725-0.40725s0.40725,0.18168,0.40725,0.40725v2.16793   c0,0.22557-0.18168,0.40725-0.40725,0.40725s-0.40725-0.18168-0.40725-0.40725V28.21819z M11.22635,32.55304   c0-0.22557,0.18168-0.40725,0.40725-0.40725s0.40725,0.18168,0.40725,0.40725v2.16793c0,0.22557-0.18168,0.40725-0.40725,0.40725   s-0.40725-0.18168-0.40725-0.40725V32.55304z M11.22635,36.88891c0-0.22557,0.18168-0.40725,0.40725-0.40725   s0.40725,0.18168,0.40725,0.40725v0.63793h0.63793c0.22557,0,0.40725,0.18168,0.40725,0.40725s-0.18168,0.40725-0.40725,0.40725   H11.6336c-0.22557,0-0.40725-0.18168-0.40725-0.40725V36.88891z"/><path d="M59.22711,37.7126h1.59431c2.03948,0,4.1262,0.95432,5.47393,2.61908V7.9821c0-3.02327-2.45576-5.4821-5.47393-5.4821   h-0.18985c-0.77878,0-1.41161,0.63487-1.41161,1.41467v4.03107c0.00057,0.01238,0.00714,0.02284,0.00714,0.03534V37.7126z"/><path d="M53.63886,29.88803h-5.74952v26.01215h5.74952v-4.8383c-0.00019-0.00714-0.00409-0.01301-0.00409-0.02016   s0.00389-0.01302,0.00409-0.02016V29.88803z"/><path d="M53.63784,57.47204H47.8873v2.49047h5.75054v-1.15414c-0.00006-0.00549-0.00306-0.01008-0.00306-0.01556   c0-0.00536,0.00294-0.00957,0.00306-0.0148V57.47204z"/><path d="M8.02344,51.83684c-3.12213,0-5.47291,2.63691-5.47291,5.26571c0,0.04287-0.00306,0.08676-0.01021,0.12861   c-0.00102,3.11206,2.45985,5.57498,5.48414,5.57498h5.82199c0.77878,0,1.41161-0.63486,1.41161-1.41467V51.8348   C15.15673,51.83483,7.82178,51.8369,8.02344,51.83684z"/><polygon points="48.2448,28.32026 53.27913,28.32026 50.76461,21.83279  "/><path d="M47.88424,65.91719c0,0.19495,0.15923,0.35418,0.3552,0.35418h5.04525c0.19597,0,0.3552-0.15923,0.3552-0.35418v-4.38384   h-5.75564V65.91719z"/><path d="M66.19839,59.64406l-3.35952-0.01812l-0.01384,2.48511c-0.00102,0.21537-0.17658,0.3899-0.39194,0.3899   c-0.00102,0-0.00102,0-0.00204,0c-0.21638-0.00102-0.39092-0.1776-0.3899-0.39399l0.01384-2.48511l-4.02539-0.02169   l-0.01301,2.48435c-0.00102,0.21536-0.17658,0.3899-0.39194,0.3899c-0.00102,0-0.00102,0-0.00204,0   c-0.21638-0.00102-0.39092-0.1776-0.3899-0.39399l0.01301-2.48447l-2.04009-0.01084v1.15427   c0.00006,0.00357,0.00204,0.0065,0.00204,0.01008v5.16773c0,0.18321-0.034,0.35698-0.08216,0.52514L66.16062,66.5   c0.08676-0.01021,0.14902-0.03777,0.1827-0.0694c0.03062-0.0296,0.08268-0.09492,0.08472-0.19495l0.03165-6.33437   C66.45969,59.75838,66.34537,59.64406,66.19839,59.64406z"/><path d="M46.31647,60.74946c0-0.00536,0.00294-0.00982,0.00306-0.01518v-1.19867l-2.71732-0.0148l-0.01301,2.48715   c-0.00102,0.21537-0.17658,0.3899-0.39194,0.3899c-0.00102,0-0.00102,0-0.00204,0c-0.21638-0.00102-0.39092-0.1776-0.3899-0.39399   l0.01301-2.48741l-4.02475-0.0222l-0.01384,2.48817c-0.00102,0.21537-0.17658,0.3899-0.39194,0.3899   c-0.00102,0-0.00102,0-0.00204,0c-0.21638-0.00102-0.39092-0.1776-0.3899-0.39398l0.01384-2.4883l-4.02539-0.02207   l-0.01301,2.48894c-0.00102,0.21536-0.17658,0.3899-0.39194,0.3899c-0.22761-0.01633-0.39296-0.17658-0.39194-0.39398   l0.01301-2.4892l-4.02469-0.0222l-0.01391,2.48894c-0.00102,0.21537-0.17658,0.3899-0.39194,0.3899   c-0.20108,0.0102-0.39297-0.17658-0.39194-0.39399l0.01391-2.48907l-4.02545-0.02207l-0.01301,2.4897   c-0.00102,0.21537-0.17658,0.3899-0.39194,0.3899c-0.00102,0-0.00102,0-0.00204,0c-0.21639-0.00102-0.39092-0.1776-0.3899-0.39398   l0.01301-2.48996l-3.25063-0.01786c-0.1429,0-0.25721,0.11432-0.25721,0.2613l-0.04185,6.33948   c0,0.14494,0.11738,0.2664,0.2613,0.2664l26.0903,0.13651c-0.04-0.15412-0.06794-0.3131-0.06794-0.47946V60.74946z"/></g><text x="0" y="84" fill="#000000" font-size="5px" font-weight="bold" font-family="'Helvetica Neue', Helvetica, Arial-Unicode, Arial, Sans-serif">Created by Vectors Point</text><text x="0" y="89" fill="#000000" font-size="5px" font-weight="bold" font-family="'Helvetica Neue', Helvetica, Arial-Unicode, Arial, Sans-serif">from the Noun Project</text></svg>