<svg id="Layer_1" data-name="Layer 1" xmlns="http://www.w3.org/2000/svg" viewBox="0 0 96 93.6"><defs><style>.cls-1{fill:#ff26be;}.cls-2{fill:#2e001f;}.cls-3{fill:#fff;}</style></defs><title>Experience Design</title><g id="Layer_2" data-name="Layer 2"><g id="Layer_1-2" data-name="Layer 1-2"><rect class="cls-1" width="96" height="93.6" rx="17.6"/><rect class="cls-2" x="4" y="4" width="88" height="85.6" rx="14.4"/><path class="cls-3" d="M38.16,43.88,49.36,65.6c.2.32.08.64-.24.64h-7a.78.78,0,0,1-.84-.52q-3.84-7.92-7.84-16.44h0c-2.4,5.36-5,11.2-7.6,16.48a.76.76,0,0,1-.72.44H18.44c-.4,0-.44-.32-.24-.56l11-21.08-10.6-21a.35.35,0,0,1,0-.49.36.36,0,0,1,.29-.11h6.88c.4,0,.6.08.72.44,2.52,5.36,5,10.6,7.44,16H34c2.32-5.28,4.88-10.6,7.32-15.84.2-.32.32-.52.72-.52h6.44c.32,0,.44.24.24.6ZM51.8,50.36c0-9.32,6-16.6,15.84-16.6a18.08,18.08,0,0,1,2.08.08V23.44a.4.4,0,0,1,.4-.4h6.44c.32,0,.4.12.4.32V59.92a28.52,28.52,0,0,0,.2,3.92c0,.28,0,.32-.24.44A23.74,23.74,0,0,1,66.68,66.6C58,66.6,51.8,61.24,51.8,50.36ZM69.72,40.12a5.44,5.44,0,0,0-2.32-.4c-5,0-8.4,3.88-8.4,10.32,0,7.36,3.44,10.32,7.92,10.32a7.4,7.4,0,0,0,2.76-.44V40.12Z"/></g></g></svg>